<svg xmlns="http://www.w3.org/2000/svg" version="1.1" width="30px" height="32px"
                style="shape-rendering:geometricPrecision; text-rendering:geometricPrecision; image-rendering:optimizeQuality; fill-rule:evenodd; clip-rule:evenodd"
                xmlns:xlink="http://www.w3.org/1999/xlink">
                <g>
                    <path style="opacity:0.88" fill="#1c878d"
                        d="M 4.5,-0.5 C 13.1667,-0.5 21.8333,-0.5 30.5,-0.5C 30.5,0.166667 30.8333,0.5 31.5,0.5C 31.5,9.16667 31.5,17.8333 31.5,26.5C 30.3121,27.6843 29.1455,27.6843 28,26.5C 25.807,22.7701 23.6404,19.1035 21.5,15.5C 21.5,15.1667 21.5,14.8333 21.5,14.5C 21.5,13.8333 21.1667,13.5 20.5,13.5C 19.8707,11.0029 18.204,9.66957 15.5,9.5C 12.6717,7.52989 9.67168,5.69655 6.5,4C 4.96317,2.89037 4.2965,1.39037 4.5,-0.5 Z" />
                </g>
                <g>
                    <path style="opacity:0.926" fill="#d7732a"
                        d="M 15.5,9.5 C 18.204,9.66957 19.8707,11.0029 20.5,13.5C 21.1667,13.5 21.5,13.8333 21.5,14.5C 21.5,14.8333 21.5,15.1667 21.5,15.5C 21.9804,18.6852 21.3137,21.5185 19.5,24C 14.1602,26.0032 9.16018,28.5032 4.5,31.5C 3.5,31.5 2.5,31.5 1.5,31.5C 0.489053,29.5976 0.322386,27.5976 1,25.5C 3.6067,20.6203 5.94004,15.6203 8,10.5C 8.68909,9.64332 9.52242,8.97665 10.5,8.5C 12.0709,9.30937 13.7376,9.64271 15.5,9.5 Z" />
                </g>
            </svg>
